<svg width="15" height="15" viewBox="0 0 15 15" fill="none" xmlns="http://www.w3.org/2000/svg">
<path d="M12.9715 12.7746C14.002 11.7437 14.6743 10.4903 14.9886 9.16888C15.0786 8.79039 14.6136 8.53485 14.3393 8.81063C14.3359 8.81404 14.3326 8.8174 14.3292 8.82077C12.0363 11.1145 8.29128 11.0703 6.05437 8.68812C3.94547 6.44225 3.97316 2.95558 6.11471 0.740877C6.14172 0.712955 6.16893 0.685362 6.19636 0.658098C6.47144 0.384715 6.21434 -0.0783355 5.83709 0.011346C4.52794 0.322577 3.28535 0.9855 2.25983 2.00046C-0.738626 4.96808 -0.755514 9.77951 2.22295 12.7672C5.18839 15.7418 10.0029 15.7443 12.9715 12.7746Z" fill="black"/>
</svg>
