<svg width="173" height="116" viewBox="0 0 173 116" fill="none" xmlns="http://www.w3.org/2000/svg">
<path d="M161.443 0H11.5569C8.49181 0 5.55227 1.00747 3.38493 2.80078C1.2176 4.59409 0 7.02634 0 9.56246V76.9532C0 79.4893 1.2176 81.9216 3.38493 83.7149C5.55227 85.5082 8.49181 86.5156 11.5569 86.5156H115.823L106.799 114.094C106.694 114.408 106.715 114.741 106.859 115.045C107.003 115.348 107.261 115.604 107.596 115.775C107.931 115.946 108.324 116.023 108.716 115.994C109.108 115.965 109.478 115.831 109.771 115.613L149.318 86.5238H161.443C164.508 86.5238 167.448 85.5164 169.615 83.7231C171.782 81.9298 173 79.4975 173 76.9614V9.57065C173.001 8.31421 172.703 7.06986 172.123 5.90874C171.543 4.74762 170.692 3.6925 169.619 2.80368C168.545 1.91485 167.271 1.20975 165.868 0.728682C164.465 0.247611 162.962 -4.61552e-07 161.443 0Z" fill="#292929"/>
</svg>
